<svg width="177" height="193" viewBox="0 0 177 193" fill="none"
  xmlns="http://www.w3.org/2000/svg">
  <g filter="url(#filter0_b)">
    <path d="M119.731 57.9925C163.948 84.5689 150.361 114.645 144.341 135.988C130.494 185.077 83.7113 175.314 58.0989 153.063C32.4864 130.812 41.7334 34.6216 50.2167 27.8378C58.6999 21.054 64.4606 24.772 119.731 57.9925Z" fill="#8BCA3B"/>
  </g>
  <g filter="url(#filter1_b)">
    <path fill-rule="evenodd" clip-rule="evenodd" d="M145.806 130.54C152.054 109.66 160.269 82.2076 119.54 57.6685C118.59 57.0961 117.654 56.5323 116.733 55.9772C104.851 56.7749 91.562 60.2866 80.2175 66.5979C67.8228 72.8264 53.5167 71.5104 41.7098 68.2032C39.7257 99.5408 42.6057 139.478 57.9728 152.849C83.6266 175.171 130.45 185.003 144.252 135.838C144.733 134.126 145.262 132.358 145.806 130.54Z" fill="#5D9A0F"/>
  </g>
  <g filter="url(#filter2_b)">
    <path fill-rule="evenodd" clip-rule="evenodd" d="M144.765 80.9548C155.548 98.6043 150.265 116.259 145.929 130.749C145.385 132.566 144.856 134.334 144.375 136.046C130.573 185.212 83.7496 175.379 58.0957 153.058C48.8096 144.978 44.0833 127.197 42.2347 107.474C57.1473 110.412 75.5373 109.231 89.9906 95.2575C109.646 76.2541 129.06 72.7768 144.765 80.9548Z" fill="#29771C"/>
  </g>
  <g filter="url(#filter3_b)">
    <path fill-rule="evenodd" clip-rule="evenodd" d="M63.8993 157.634C76.5114 156.124 89.8808 149.436 95.1432 131.202C104.409 99.0944 135.236 94.1971 150.111 114.445C149.092 120.178 147.452 125.659 145.929 130.749C145.385 132.566 144.856 134.334 144.375 136.046C131.56 181.699 90.2723 176.483 63.8993 157.634Z" fill="#17530D"/>
  </g>
  <defs>
    <filter id="filter0_b" x="37.3668" y="21.0101" width="117.747" height="154.339" filterUnits="userSpaceOnUse" color-interpolation-filters="sRGB">
      <feFlood flood-opacity="0" result="BackgroundImageFix"/>
      <feGaussianBlur in="BackgroundImage" stdDeviation="2"/>
      <feComposite in2="SourceAlpha" operator="in" result="effect1_backgroundBlur"/>
      <feBlend mode="normal" in="SourceGraphic" in2="effect1_backgroundBlur" result="shape"/>
    </filter>
    <filter id="filter1_b" x="11.5699" y="22.3922" width="168.904" height="173.533" filterUnits="userSpaceOnUse" color-interpolation-filters="sRGB">
      <feFlood flood-opacity="0" result="BackgroundImageFix"/>
      <feGaussianBlur in="BackgroundImage" stdDeviation="2"/>
      <feComposite in2="SourceAlpha" operator="in" result="effect1_backgroundBlur"/>
      <feBlend mode="normal" in="SourceGraphic" in2="effect1_backgroundBlur" result="shape"/>
    </filter>
    <filter id="filter2_b" x="28.8919" y="51.7541" width="151.705" height="144.379" filterUnits="userSpaceOnUse" color-interpolation-filters="sRGB">
      <feFlood flood-opacity="0" result="BackgroundImageFix"/>
      <feGaussianBlur in="BackgroundImage" stdDeviation="2"/>
      <feComposite in2="SourceAlpha" operator="in" result="effect1_backgroundBlur"/>
      <feBlend mode="normal" in="SourceGraphic" in2="effect1_backgroundBlur" result="shape"/>
    </filter>
    <filter id="filter3_b" x="50.0954" y="88.1359" width="119.807" height="105.955" filterUnits="userSpaceOnUse" color-interpolation-filters="sRGB">
      <feFlood flood-opacity="0" result="BackgroundImageFix"/>
      <feGaussianBlur in="BackgroundImage" stdDeviation="2"/>
      <feComposite in2="SourceAlpha" operator="in" result="effect1_backgroundBlur"/>
      <feBlend mode="normal" in="SourceGraphic" in2="effect1_backgroundBlur" result="shape"/>
    </filter>
  </defs>
</svg>
